<svg width="90" height="90" viewBox="0 0 90 90" fill="none" xmlns="http://www.w3.org/2000/svg">
<path fill-rule="evenodd" clip-rule="evenodd" d="M4.60147 87.1369C0.658924 86.8342 -0.291925 83.9857 0.0714073 80.7026C2.22821 61.3298 23.8658 66.9414 32.5626 59.079C36.8994 71.8855 55.0197 72.359 59.0859 59.079C60.0213 59.925 61.32 60.639 62.8507 61.2677C61.4515 62.1215 60.1295 63.1538 58.9158 64.3723C52.7856 70.5195 51.2781 79.5617 54.3858 87.1369H4.60147ZM32.4467 46.2336C34.0933 48.8493 35.8172 51.5348 37.9508 53.5062C40.0071 55.3923 42.5118 56.6807 45.8049 56.6884C49.3919 56.6962 51.9971 55.369 54.123 53.3665C56.3339 51.2942 58.0732 48.4457 59.7971 45.605L64.42 37.9676C65.278 35.9884 65.595 34.669 65.394 33.8928C65.2703 33.4349 64.7678 33.2098 63.9097 33.171C63.7319 33.1632 63.5387 33.1632 63.3531 33.1632C63.1522 33.171 62.9357 33.1865 62.7038 33.202C62.5724 33.2098 62.4641 33.202 62.3482 33.1787C61.9462 33.202 61.5133 33.171 61.0881 33.1089L62.6651 26.0769C50.9225 27.932 42.1407 19.1847 29.741 24.3306L30.6377 32.6122C30.1507 32.6432 29.6714 32.6199 29.2308 32.5578C22.111 32.7907 31.0475 43.9906 32.4467 46.2336ZM65.51 31.0598C66.6463 31.4091 67.373 32.1309 67.6745 33.3029C68.0069 34.5991 67.6436 36.4308 66.5458 38.93C66.5226 38.9766 66.5072 39.0232 66.4763 39.062L61.807 46.7847C60.0058 49.7651 58.1815 52.7533 55.7386 55.0352C53.2185 57.4103 50.0954 58.9936 45.8359 58.9781C41.8624 58.9703 38.863 57.4491 36.4047 55.1827C33.4362 52.4506 19.7687 35.2666 25.8758 31.1297C26.1773 30.9357 26.5097 30.7571 26.8653 30.6252C26.5947 27.0704 26.5019 22.5998 26.672 18.851C26.7648 17.9661 26.9348 17.0813 27.1745 16.1888C28.2181 12.4244 30.8542 9.39741 34.101 7.31732C35.8945 6.16861 37.8657 5.30708 39.9066 4.73273C41.2053 4.36018 38.8011 0.17671 40.1385 0.0525257C46.6398 -0.622728 57.1842 5.34589 61.7297 10.29C63.9948 12.7582 65.4404 16.0413 65.7496 20.38L65.51 31.0598Z" fill="#555555"/>
<path d="M85.5362 78.6008C82.6213 78.0214 79.6334 80.4216 79.3456 83.5881L78.1558 82.4713C77.8299 82.1645 77.3048 82.1863 77.0096 82.5523C76.7099 82.9137 76.7434 83.4666 77.0809 83.7797C77.0809 83.7859 77.6918 84.3403 77.6845 84.3497L79.7224 86.2639C80.0293 86.6144 80.5733 86.6408 80.8904 86.2935C81.5449 85.6612 83.0228 84.2531 83.6628 83.6332C84.4483 82.8498 83.3922 81.5804 82.5762 82.3358L80.9617 83.884C81.0242 83.1021 81.318 82.3343 81.7879 81.73C83.9945 78.8594 88.3889 80.5276 88.3974 84.261C88.4542 87.4477 84.8803 89.4085 82.5006 87.5084C82.0322 87.1268 81.2715 87.4632 81.2177 88.1018C81.0998 89.3899 83.7312 90.0316 84.6693 89.9989C91.2569 89.7886 91.9596 79.9219 85.5392 78.5977L85.5362 78.6008Z" fill="#4058D0"/>
<path d="M63.5519 82.8077C63.549 83.9291 63.5534 86.8512 63.5519 88.0051C63.5519 88.896 64.2588 89.6234 65.1287 89.6234H79.9609C79.6991 89.1857 79.574 88.6873 79.5798 88.1749C78.9165 87.9631 78.2445 87.1796 77.7209 86.7139L76.003 85.0957C73.9622 83.141 76.003 79.6395 78.5194 80.6957C79.5958 78.565 81.6598 77.062 83.9218 76.8253V64.7841C83.9218 63.7359 83.1116 62.8808 82.1166 62.8808C79.094 62.8715 73.872 62.8886 70.7363 62.8808C70.7319 64.5037 70.7392 67.2465 70.7363 68.8992C70.7363 69.7543 70.0671 70.4474 69.241 70.4474C67.6773 70.4629 65.0984 70.4365 63.5508 70.4474V82.8079L63.5519 82.8077ZM72.9163 83.5413H67.8732C66.8041 83.5226 66.7998 81.8171 67.8732 81.7953H72.9177C73.9883 81.8171 73.9898 83.5226 72.9177 83.5413H72.9163ZM67.8718 73.1122H77.2581C78.3257 73.1293 78.3316 74.8348 77.2581 74.8582H67.8718C66.8027 74.8364 66.7983 73.1309 67.8718 73.1122ZM67.8718 77.4547H75.0894C76.1585 77.4719 76.1629 79.182 75.0894 79.2007H67.8718C66.8027 79.1836 66.7983 77.4734 67.8718 77.4547Z" fill="#4058D0"/>
<path d="M69.1061 63.0039C68.8021 63.1145 68.5243 63.2952 68.3017 63.5335L64.1446 67.9039C63.922 68.1313 63.7635 68.4039 63.666 68.7014H69.106L69.1061 63.0039Z" fill="#4058D0"/>
<path d="M59.4741 84.554H61.9193C61.9556 82.2691 61.8465 71.1281 61.9629 68.8123C62.0778 67.9977 62.4356 67.247 63.0015 66.6582L67.1541 62.2878C67.7083 61.6944 68.4589 61.2987 69.2574 61.1757C71.2444 61.0682 76.35 61.1679 78.328 61.1352V59.3425C78.328 58.179 77.4043 57.2305 76.2683 57.2305H59.4737C58.3377 57.2305 57.4141 58.179 57.4141 59.3425V82.4467C57.4141 83.6102 58.3377 84.5541 59.4737 84.5541L59.4741 84.554Z" fill="#4058D0"/>
</svg>
